
		<!--?xml version="1.0" standalone="no"?-->

<svg xmlns="http://www.w3.org/2000/svg" width="300" height="300" viewBox="0 0 300.000000 190.000000" preserveAspectRatio="xMidYMid " class="svg" style="width: 310px; height: 300px;">
<g transform="translate(0.000000,190.000000) scale(0.100000,-0.100000)" fill="#010101" stroke="none">


</g>
<g transform="translate(0.000000,190.000000) scale(0.100000,-0.100000)" fill="#AFE26F" stroke="none">
<path style="position: relative; fill: rgb(2, 179, 228);" class="node" id="node3" d="M375 1886 c-22 -7 -63 -25 -92 -39 -41 -21 -67 -27 -120 -28 -71 -1
-144 -17 -150 -34 -2 -6 27 -21 64 -34 184 -66 227 -147 203 -384 -14 -143 -9
-228 19 -309 42 -121 101 -208 204 -296 96 -82 205 -137 345 -172 23 -6 40
-14 38 -19 -9 -14 -113 -34 -147 -27 -82 16 -129 18 -129 7 0 -6 10 -11 23
-12 12 0 38 -6 56 -13 l35 -12 -73 -12 c-79 -13 -125 -33 -134 -56 -5 -13 -1
-13 36 0 39 15 233 54 264 54 20 0 16 -14 -18 -56 -32 -40 -53 -83 -45 -91 2
-3 24 17 48 44 94 105 87 100 175 108 45 4 94 14 110 22 15 8 59 18 97 21 l69
5 -21 -30 c-24 -34 -199 -225 -240 -262 -24 -22 -32 -23 -107 -18 -93 7 -123
-2 -69 -22 20 -7 32 -17 27 -21 -4 -5 -41 -13 -82 -19 -55 -7 -80 -16 -95 -32
-20 -21 -20 -22 -1 -14 11 5 58 12 105 16 47 4 113 17 148 27 77 25 79 19 21
-86 -49 -90 -36 -85 37 14 65 87 88 104 157 115 28 5 64 18 80 29 17 13 35 19
47 15 15 -5 18 -3 14 8 -9 24 -43 27 -115 10 -38 -9 -71 -14 -75 -11 -12 12 8
50 66 122 77 97 148 149 311 228 87 43 164 89 215 129 91 73 120 84 245 100
50 6 113 17 138 26 99 31 115 32 296 17 99 -8 239 -21 310 -29 179 -20 311
-23 326 -8 10 10 7 14 -12 22 -13 5 -19 10 -13 10 7 1 12 22 13 51 1 63 -20
80 -102 80 -32 0 -138 9 -235 20 -97 10 -233 24 -301 29 -68 6 -126 12 -128
15 -3 2 22 10 54 16 111 22 106 20 88 40 -21 23 -63 33 -260 64 -173 27 -197
34 -325 94 -47 22 -134 56 -195 76 -60 20 -171 66 -245 101 -74 35 -191 80
-259 100 -155 45 -164 50 -263 138 -116 104 -175 144 -247 167 -71 23 -128 25
-186 6z"></path>
</g>
</svg>	